<svg xmlns="http://www.w3.org/2000/svg" version="1.1" viewBox="-5.0 -10.0 110.0 135.0">
 <path d="m62.5 53.125c0 6.9062-5.5938 12.5-12.5 12.5s-12.5-5.5938-12.5-12.5 5.5938-12.5 12.5-12.5 12.5 5.5938 12.5 12.5zm31.25-15.625v37.5c0 5.1562-4.2188 9.375-9.375 9.375h-68.75c-5.1562 0-9.375-4.2188-9.375-9.375v-37.5c0-5.1562 4.2188-9.375 9.375-9.375h13.875c1.4375 0 2.6875-0.96875 3.0312-2.375l0.75-3.0312c1.0625-4.1875 4.7812-7.0938 9.0938-7.0938h15.25c4.3125 0 8.0312 2.9062 9.0938 7.0938l0.75 3.0312c0.34375 1.4062 1.5938 2.375 3.0312 2.375h13.875c5.1562 0 9.375 4.2188 9.375 9.375zm-25 15.625c0-10.344-8.4062-18.75-18.75-18.75s-18.75 8.4062-18.75 18.75 8.4062 18.75 18.75 18.75 18.75-8.4062 18.75-18.75z"/>
</svg>