<svg xmlns="http://www.w3.org/2000/svg" version="1.1" viewBox="-5.0 -10.0 110.0 135.0">
 <path d="m17.945 45.172h12.531v4.3047h12.102v-4.3047h12.543c1.625 0 2.9531-1.3281 2.9531-2.9688l-0.003907-22.375c0-1.625-1.3281-2.9531-2.9531-2.9531h-37.172c-1.6406 0-2.9688 1.3281-2.9688 2.9531v22.375c0 1.6406 1.3281 2.9688 2.9688 2.9688zm1.7188-23.609h33.719v18.922h-33.719z"/>
 <path d="m30.523 52.602c-1.832 0-3.3164 1.4844-3.3164 3.3164v1.8633h18.637v-1.8633c0-1.832-1.4844-3.3164-3.3164-3.3164z"/>
 <path d="m56.602 63.062h-40.156c-0.9375 0-1.7031 0.71875-1.75 1.6562l-0.92187 16.547c-0.0625 1.0156 0.75 1.8594 1.75 1.8594h42c1.0156 0 1.8125-0.84375 1.75-1.8594l-0.90625-16.547c-0.0625-0.9375-0.82813-1.6562-1.7656-1.6562zm-26.422 4.5781h2.625c0.85937 0 1.5625 0.70312 1.5625 1.5625 0 0.875-0.70313 1.5625-1.5625 1.5625h-2.625c-0.85938 0-1.5625-0.6875-1.5625-1.5625 0-0.85938 0.70312-1.5625 1.5625-1.5625zm-9.4688 0h2.625c0.875 0 1.5625 0.70312 1.5625 1.5625 0 0.875-0.6875 1.5625-1.5625 1.5625h-2.625c-0.85938 0-1.5625-0.6875-1.5625-1.5625 0-0.85938 0.70312-1.5625 1.5625-1.5625zm2.6875 9.7031h-2.6875c-0.85938 0-1.5625-0.70312-1.5625-1.5625s0.70312-1.5625 1.5625-1.5625h2.6875c0.875 0 1.5625 0.70312 1.5625 1.5625s-0.6875 1.5625-1.5625 1.5625zm11.969 0h-5.9531c-0.85937 0-1.5625-0.70312-1.5625-1.5625s0.70313-1.5625 1.5625-1.5625h5.9531c0.85937 0 1.5625 0.70312 1.5625 1.5625s-0.70313 1.5625-1.5625 1.5625zm2.7031-8.1406c0-0.85938 0.70313-1.5625 1.5625-1.5625h2.625c0.875 0 1.5625 0.70312 1.5625 1.5625 0 0.875-0.6875 1.5625-1.5625 1.5625h-2.625c-0.85937 0-1.5625-0.6875-1.5625-1.5625zm5.6719 8.1406h-2.6875c-0.85938 0-1.5625-0.70312-1.5625-1.5625s0.70312-1.5625 1.5625-1.5625h2.6875c0.85937 0 1.5625 0.70312 1.5625 1.5625s-0.70313 1.5625-1.5625 1.5625zm7.9844 0h-2.6875c-0.85937 0-1.5625-0.70312-1.5625-1.5625s0.70313-1.5625 1.5625-1.5625h2.6875c0.85938 0 1.5625 0.70312 1.5625 1.5625s-0.70312 1.5625-1.5625 1.5625zm0-6.5781h-2.625c-0.85937 0-1.5625-0.6875-1.5625-1.5625 0-0.85938 0.70313-1.5625 1.5625-1.5625h2.625c0.85938 0 1.5625 0.70312 1.5625 1.5625 0 0.875-0.70312 1.5625-1.5625 1.5625z"/>
 <path d="m83.602 21.656h-15.422c-1.4531 0-2.625 1.1719-2.625 2.625v34.453c0 1.4531 1.1719 2.625 2.625 2.625h15.422c1.4531 0 2.625-1.1719 2.625-2.625v-34.453c0-1.4531-1.1719-2.625-2.625-2.625zm-7.7188 29.969c-2 0-3.6406-1.6406-3.6406-3.6406 0-2.0156 1.6406-3.6562 3.6406-3.6562 2.0156 0 3.6562 1.6406 3.6562 3.6562 0 2-1.6406 3.6406-3.6562 3.6406zm2.8906-12.734h-5.7656c-0.875 0-1.5625-0.70312-1.5625-1.5625s0.6875-1.5625 1.5625-1.5625h5.7656c0.85937 0 1.5625 0.70312 1.5625 1.5625s-0.70313 1.5625-1.5625 1.5625zm3.75-8c0 0.85938-0.6875 1.5625-1.5469 1.5625h-10.172c-0.85938 0-1.5469-0.70312-1.5469-1.5625v-2.2188c0-0.85938 0.6875-1.5469 1.5469-1.5469h10.172c0.85938 0 1.5469 0.6875 1.5469 1.5469z"/>
 <path d="m75.613 69.238c-3.6328 0-6.5781 2.9453-6.5781 6.5781v2.0391c0 0.73047 0.59375 1.3242 1.3242 1.3242h10.508c0.73047 0 1.3242-0.59375 1.3242-1.3242v-2.0391c-0.003906-3.6328-2.9453-6.5781-6.5781-6.5781z"/>
</svg>