<svg xmlns="http://www.w3.org/2000/svg" xmlns:xlink="http://www.w3.org/1999/xlink" version="1.1" x="0px" y="0px" viewBox="0 0 100 125" style="enable-background:new 0 0 100 100;" xml:space="preserve"><style type="text/css">
	.st0{fill-rule:evenodd;clip-rule:evenodd;}
</style><path d="M31.2210865,2.5c-3.6715546,0-6.6282463,2.9557066-6.6282463,6.6282463v81.7434998  c0,3.6715546,2.9557056,6.6282501,6.6282463,6.6282501h37.5578308c3.6715546,0,6.6282425-2.9557114,6.6282425-6.6282425V9.1282511  c0-3.6715536-2.9557037-6.6282463-6.6282425-6.6282463L31.2210865,2.5z M30.1161308,11.3373327h39.7671089v70.6970825H30.1161289  L30.1161308,11.3373327z M49.9996872,86.4529877c1.8300209,0,3.3141212,1.4840469,3.3141212,3.3141174  c0,1.8300247-1.4832764,3.3141251-3.3141212,3.3141251c-1.8300209,0-3.3141212-1.4832764-3.3141212-3.3141251  C46.6855659,87.937088,48.1688423,86.4529877,49.9996872,86.4529877z"/></svg>