<svg xmlns="http://www.w3.org/2000/svg" version="1.1" viewBox="-5.0 -10.0 110.0 135.0">
 <path d="m47.879 41.57-11.309 11.309c-1.1719 1.1719-1.1719 3.0703 0 4.2383 1.1719 1.1719 3.0703 1.1719 4.2383 0l6.1914-6.1914v17.91c0 1.6602 1.3398 3 3 3s3-1.3398 3-3v-17.91l6.1914 6.1914c0.58984 0.58984 1.3516 0.87891 2.1211 0.87891s1.5391-0.28906 2.1211-0.87891c1.1719-1.1719 1.1719-3.0703 0-4.2383l-11.309-11.309c-1.1719-1.1719-3.0703-1.1719-4.2383 0z"/>
 <path d="m79.57 32.48c-0.39844-1.2617-1.0898-2.4102-2.0312-3.3906l-13.922-14.422c-1.6406-1.6992-3.9297-2.6719-6.2891-2.6719h-28.59c-4.8203 0-8.7383 3.9219-8.7383 8.7383v56.52c0 4.8203 3.9219 8.7383 8.7383 8.7383h42.52c4.8203 0 8.7383-3.9219 8.7383-8.7383v-42.102c0-0.26953-0.011719-0.53125-0.039063-0.78906 0.019531-0.12109 0.039063-0.25 0.039063-0.37109 0-0.55859-0.16016-1.0703-0.42969-1.5195zm-17.57-10.852 9.0508 9.3711h-9.0508zm12 55.633c0 1.5117-1.2305 2.7383-2.7383 2.7383h-42.523c-1.5117 0-2.7383-1.2305-2.7383-2.7383v-56.523c0-1.5117 1.2305-2.7383 2.7383-2.7383h27.262v16c0 1.6602 1.3398 3 3 3h15z"/>
 </svg>